<svg width="109" height="20" viewBox="0 0 109 20" fill="none" xmlns="http://www.w3.org/2000/svg">
<path d="M8.49309 9.79614C6.68449 8.72824 4.7446 7.87354 3.46022 6.72619C1.49464 5.01775 2.85798 2.24045 5.16416 2.34705C7.96982 2.34705 9.77842 4.3491 10.0144 7.31246H10.6442V1.19872H10.0144C9.88307 1.8664 9.5948 2.21332 9.12291 2.21332C8.99162 2.21332 8.51972 2.05342 7.68155 1.70554C6.84242 1.35862 6.02993 1.19775 5.26977 1.19775C3.77513 1.19775 2.51739 1.65224 1.49464 2.56024C0.49853 3.44207 0 4.56327 0 5.87148C0 11.7459 8.99162 11.7459 8.99162 15.8043C8.99162 17.4332 7.75956 18.5011 5.872 18.5011C3.2766 18.5011 1.20542 16.9264 0.760163 13.6152H0.157931V19.6766H0.761114C0.786802 19.0089 1.04939 18.6882 1.54697 18.6882C1.83524 18.6882 2.46411 18.849 3.40789 19.1959C4.35167 19.5167 5.26882 19.6766 6.16027 19.6766C7.91654 19.6766 9.30653 19.1959 10.276 18.2347C11.2721 17.2734 11.7706 16.0717 11.7706 14.6569C11.7706 12.5473 10.3026 10.8389 8.49404 9.79711L8.49309 9.79614Z" fill="#272727"/>
<path d="M18.4922 6.96558C16.8672 6.96558 15.4781 7.60612 14.3507 8.91434C13.2233 10.1964 12.6469 11.6907 12.6469 13.3729C12.6469 15.0552 13.1968 16.5233 14.3242 17.7792C15.4516 19.0341 16.8415 19.6475 18.5179 19.6475C20.3531 19.6475 21.7955 19.007 22.8172 17.7259C23.8657 16.4177 24.3899 14.8682 24.3899 13.0532C24.3899 11.398 23.8134 9.9832 22.686 8.78158C21.5586 7.57996 20.1438 6.96558 18.4922 6.96558ZM18.9375 18.5535C16.8663 18.5535 15.4771 16.1241 15.4771 12.2527C15.4771 9.47639 16.6312 8.03347 18.2819 8.03347C20.0905 8.03347 21.5585 10.303 21.5585 14.1482C21.5585 17.0844 20.6937 18.5535 18.9375 18.5535Z" fill="#272727"/>
<path d="M58.1054 1.599V2.18624C59.0758 2.18624 59.7313 2.37327 60.0719 2.72019C60.4125 3.06711 60.5704 3.86851 60.5704 5.09727V11.7992C60.5704 16.3111 58.8665 18.3403 55.4063 18.3403C52.3656 18.3403 51.0289 16.5514 51.0289 12.0395V5.36376C51.0289 4.00224 51.1602 3.12138 51.4485 2.74732C51.7368 2.37327 52.4189 2.18624 53.493 2.18624V1.599H45.5765V2.18624C46.5992 2.18624 47.2538 2.37327 47.5697 2.77349C47.8836 3.1737 48.0415 4.02841 48.0415 5.36279V12.9456C48.0415 17.4313 50.4533 19.6737 55.2769 19.6737C59.7846 19.6737 61.9347 17.1367 61.9347 12.9718V5.09727C61.9347 3.89565 62.0917 3.09424 62.4066 2.74732C62.7472 2.37327 63.4027 2.18624 64.3988 2.18624V1.599H58.1054Z" fill="#272727"/>
<path d="M74.868 16.8983V11.2643C74.868 8.40753 73.8195 6.96558 71.7217 6.96558C70.2803 6.96558 69.2053 7.55282 67.9209 9.15563V6.96558H67.1598L63.4379 8.48796L63.6215 9.04807C63.9365 8.91434 64.2247 8.86201 64.4864 8.86201C65.1152 8.86201 65.3778 9.26223 65.3778 10.677V16.8983C65.3778 18.3132 65.0106 18.6872 63.6215 18.6872V19.2745H69.6772V18.6872C68.2881 18.6872 67.9209 18.287 67.9209 16.8983V10.3301C68.838 9.36882 69.7029 8.88818 70.5153 8.88818C71.6951 8.88818 72.3239 9.60915 72.3239 11.7449V16.8983C72.3239 18.3132 72.0357 18.7134 70.5943 18.6872V19.2745H76.6499V18.6872C75.2076 18.7134 74.868 18.2599 74.868 16.8983Z" fill="#272727"/>
<path d="M80.1786 4.02939C81.0958 4.02939 81.8046 3.33555 81.8046 2.40041C81.8046 1.46528 81.0444 0.71814 80.1786 0.71814C79.2615 0.71814 78.527 1.46528 78.527 2.40041C78.527 3.33555 79.2349 4.02939 80.1786 4.02939Z" fill="#272727"/>
<path d="M81.4897 16.8983V6.96558H80.6506L77.0591 8.48796L77.295 9.0219C77.5043 8.91531 77.7402 8.86201 77.9762 8.86201C78.7097 8.86201 78.9457 9.18277 78.9457 10.9707V16.8983C78.9457 18.3132 78.5794 18.6872 77.1894 18.6872V19.2745H83.1927V18.6872C81.8293 18.6872 81.4897 18.3141 81.4897 16.8983Z" fill="#272727"/>
<path d="M89.1227 6.96558C87.4977 6.96558 86.1087 7.60612 84.9813 8.91434C83.8539 10.1964 83.2773 11.6907 83.2773 13.3729C83.2773 15.0552 83.8282 16.5233 84.9546 17.7792C86.082 19.0341 87.4711 19.6475 89.1484 19.6475C90.9827 19.6475 92.4249 19.007 93.4477 17.7259C94.4961 16.4177 95.0203 14.8682 95.0203 13.0532C95.0203 11.398 94.4438 9.9832 93.3164 8.78158C92.189 7.57996 90.7743 6.96558 89.1227 6.96558ZM89.5679 18.5535C87.4967 18.5535 86.1077 16.1241 86.1077 12.2527C86.1077 9.47639 87.2617 8.03347 88.9134 8.03347C90.722 8.03347 92.19 10.303 92.19 14.1482C92.19 17.0844 91.3241 18.5535 89.5679 18.5535Z" fill="#272727"/>
<path d="M106.411 16.8983V11.2643C106.411 8.40753 105.363 6.96558 103.265 6.96558C101.824 6.96558 100.749 7.55282 99.4643 9.15563V6.96558H98.7042L94.9823 8.48796L95.165 9.04807C95.4799 8.91434 95.7682 8.86201 96.0298 8.86201C96.6587 8.86201 96.9213 9.26223 96.9213 10.677V16.8983C96.9213 18.3132 96.554 18.6872 95.165 18.6872V19.2745H101.221V18.6872C99.8316 18.6872 99.4643 18.287 99.4643 16.8983V10.3301C100.381 9.36882 101.246 8.88818 102.059 8.88818C103.239 8.88818 103.868 9.60915 103.868 11.7449V16.8983C103.868 18.3132 103.579 18.7134 102.139 18.6872V19.2745H108.193V18.6872C106.751 18.7134 106.411 18.2599 106.411 16.8983Z" fill="#272727"/>
<path d="M37.6723 17.941C37.2404 17.941 36.9197 17.7676 36.7133 17.4207C36.5059 17.0737 36.4031 16.501 36.4031 15.7006V8.03444H39.0775V6.75336H36.4031L36.3251 3.44308C36.2728 1.59995 34.6992 0.131836 32.6813 0.131836C30.6634 0.131836 28.8538 1.03984 27.8844 3.04189C27.2812 4.02936 26.9929 5.20482 26.9929 6.51303V6.75336H24.7124V8.03444H26.9929V15.8576C26.9929 17.0592 26.8616 17.8073 26.5733 18.1542C26.3108 18.475 25.7085 18.662 24.7647 18.6882V19.2754H31.7109V18.6882C30.7937 18.662 30.1905 18.475 29.9289 18.1542C29.6663 17.8335 29.536 17.0592 29.536 15.8576V8.03444H33.782V16.6619C33.782 17.5689 34.0208 18.2628 34.4975 18.7425C34.9741 19.2231 35.6544 19.4625 36.5373 19.4625C37.8883 19.4625 38.9053 18.6717 39.5903 17.0883H38.9957C38.6713 17.6571 38.2298 17.941 37.6723 17.941ZM29.535 6.75239V5.44417C29.535 4.18925 29.7443 3.20179 30.1382 2.50698C30.7148 1.62611 31.6329 1.25206 32.4453 1.25206C34.0703 1.25206 35.4337 1.8393 35.4337 3.7619C35.4337 5.12438 35.3024 6.75239 32.7079 6.75239H29.535Z" fill="#272727"/>
</svg>
